<?xml version="1.0" encoding="iso-8859-1"?>
<!-- Uploaded to: SVG Repo, www.svgrepo.com, Generator: SVG Repo Mixer Tools -->
<svg fill="#000000" height="800px" width="800px" version="1.1" id="Capa_1" xmlns="http://www.w3.org/2000/svg" xmlns:xlink="http://www.w3.org/1999/xlink" 
	 viewBox="0 0 612.007 612.007" xml:space="preserve">
<g>
	<g>
		<path d="M306.01,342.452c-124.984,0-231.013-40.412-283.807-100.817v12.169c1.203,83.63,128.511,151.872,283.807,151.872
			c153.344,0,283.298-69.975,283.793-152.807v-11.241C537.016,302.033,430.987,342.452,306.01,342.452z"/>
		<path d="M306.01,441.537c-124.688,0-230.923-40.55-283.807-101.031v16.164c1.203,83.623,128.511,151.866,283.807,151.866
			c153.344,0,283.298-69.975,283.793-152.801v-15.153C536.982,401.063,430.87,441.537,306.01,441.537z"/>
		<path d="M306.01,544.403c-124.688,0-230.923-40.55-283.807-101.031v16.755c1.203,83.636,128.511,151.879,283.807,151.879
			c153.344,0,283.298-69.975,283.793-152.807v-15.751C536.982,503.929,430.87,544.403,306.01,544.403z"/>
		<path d="M365.68,192.917c0-5.335-2.956-9.364-8.855-12.1c-5.906-2.736-14.953-4.792-27.15-6.188v35.813
			C353.676,208.407,365.68,202.563,365.68,192.917z"/>
		<path d="M255.34,126.049c6.188,2.798,15.579,4.957,28.161,6.476V95.95c-14.128,1.018-23.898,3.08-29.329,6.188
			c-5.418,3.114-8.126,7.02-8.126,11.715C246.045,119.195,249.139,123.258,255.34,126.049z"/>
		<path d="M306.01,306.584c153.839,0,283.793-70.195,283.793-153.296C589.804,70.195,459.849,0,306.01,0
			S22.203,70.195,22.203,153.289C22.203,236.389,152.172,306.584,306.01,306.584z M189.414,93.379
			c4.654-6.538,11.323-12.19,20.041-16.954c8.711-4.758,19.312-8.601,31.798-11.53c12.485-2.915,26.573-4.95,42.241-6.098V39.182
			h46.174V58.24c14.128,0.502,28.504,1.554,43.121,3.135c14.61,1.602,28.023,3.788,40.213,6.573v37.717
			c-29.811-6.353-57.586-9.9-83.334-10.67v42.289c12.197,1.272,24.249,2.956,36.156,5.046c11.908,2.097,22.551,5.136,31.942,9.144
			c9.385,4.001,17.03,9.24,22.942,15.717c5.899,6.47,8.855,14.788,8.855,24.95c0,16.26-8.67,29.027-25.981,38.288
			c-17.332,9.275-41.966,15.05-73.908,17.332v19.622h-46.174v-18.666c-18.969-0.385-36.823-1.492-53.571-3.334
			c-16.741-1.843-30.629-4.414-41.67-7.714v-37.325c7.556,1.781,14.905,3.334,22.069,4.675c7.164,1.327,14.513,2.468,22.069,3.424
			c7.549,0.956,15.49,1.712,23.816,2.289c8.312,0.571,17.415,0.921,27.288,1.045v-41.719c-12.183-1.141-24.283-2.702-36.287-4.668
			c-12.011-1.966-22.798-4.916-32.382-8.855c-9.584-3.933-17.374-9.151-23.369-15.62c-6.009-6.47-9-14.857-9-25.142
			C182.457,107.376,184.774,99.924,189.414,93.379z"/>
	</g>
</g>
</svg>