<?xml version="1.0" ?>
<!DOCTYPE svg  PUBLIC '-//W3C//DTD SVG 1.1//EN'  'http://www.w3.org/Graphics/SVG/1.1/DTD/svg11.dtd'>
<!-- Uploaded to: SVG Repo, www.svgrepo.com, Generator: SVG Repo Mixer Tools -->
<svg fill="#000000" width="800px" height="800px" viewBox="0 0 846.66 846.66" style="shape-rendering:geometricPrecision; text-rendering:geometricPrecision; image-rendering:optimizeQuality; fill-rule:evenodd; clip-rule:evenodd" version="1.1" xml:space="preserve" xmlns="http://www.w3.org/2000/svg" xmlns:xlink="http://www.w3.org/1999/xlink">
<defs>
<style type="text/css">
   <![CDATA[
    .fil0 {fill:black;fill-rule:nonzero}
   ]]>
  </style>
</defs>
<g id="Layer_x0020_1">
<path class="fil0" d="M418 433.56c103.34,0 190.13,78.25 200.63,180.91l39.27 0 128.54 -290.62 -597.69 0 -128.54 290.62 157.16 0c10.51,-102.66 97.29,-180.91 200.63,-180.91zm-78.27 -325.88l0 -56.4 -220.35 0 0 56.4 220.35 0zm-261.91 0l0 -77.18c0,-11.47 9.3,-20.78 20.78,-20.78l261.91 0c11.47,0 20.78,9.31 20.78,20.78l0 77.18 290.11 0c11.47,0 20.78,9.3 20.78,20.78l0 153.83 126.14 0c15.64,0 25.46,16.56 18.54,30.18l-146.47 331.14c-3.42,7.76 -11.02,12.39 -18.99,12.39l-52.77 0.03c-10.5,102.65 -97.29,180.91 -200.63,180.91 -103.34,0 -190.12,-78.26 -200.63,-180.91l-189.04 0c-11.61,0 -20.78,-9.37 -20.78,-20.94l0 -506.63c0,-11.48 9.3,-20.78 20.78,-20.78l49.49 0zm-28.71 429.28l107.15 -242.25c3.42,-7.77 11.02,-12.4 18.99,-12.4l475.37 -0.02 0 -133.05c-200.51,0 -401.01,0 -601.51,0l0 387.72zm389.67 -54.22l0 44.77 31.48 0c-6.87,-16.03 -17.38,-34.39 -31.48,-44.77zm0 86.33l0 45.4 50.63 0c-0.98,-15.99 -3.09,-31.22 -6.16,-45.4l-44.47 0zm0 86.96l0 45.4 44.47 0c3.07,-14.18 5.18,-29.42 6.16,-45.4l-50.63 0zm0 86.96l0 44.77c14.1,-10.38 24.61,-28.74 31.48,-44.77l-31.48 0zm-41.56 44.77l0 -44.77 -31.48 0c6.87,16.03 17.39,34.39 31.48,44.77zm0 -86.33l0 -45.4 -50.63 0c0.99,15.98 3.1,31.22 6.16,45.4l44.47 0zm0 -86.96l0 -45.4 -44.47 0c-3.06,14.18 -5.17,29.41 -6.16,45.4l50.63 0zm0 -86.96l0 -44.77c-14.09,10.38 -24.61,28.74 -31.48,44.77l31.48 0zm105.6 -28.11c4.35,8.66 8.3,18.07 11.77,28.11l21.88 0c-9.87,-10.85 -21.21,-20.33 -33.65,-28.11zm22.72 69.67c2.73,14.45 4.6,29.66 5.49,45.4l45.77 0c-2.08,-16 -6.51,-31.25 -12.94,-45.4l-38.32 0zm5.49 86.96c-0.89,15.74 -2.76,30.95 -5.49,45.4l38.32 0c6.43,-14.15 10.86,-29.41 12.94,-45.4l-45.77 0zm-16.44 86.96c-3.47,10.04 -7.42,19.45 -11.77,28.1 12.44,-7.77 23.78,-17.25 33.65,-28.1l-21.88 0zm-181.41 28.1c-4.35,-8.65 -8.29,-18.06 -11.76,-28.1l-21.88 0c9.86,10.85 21.21,20.33 33.64,28.1zm-22.71 -69.66c-2.74,-14.45 -4.61,-29.66 -5.49,-45.4l-45.77 0c2.07,15.99 6.51,31.25 12.94,45.4l38.32 0zm-5.49 -86.96c0.88,-15.74 2.75,-30.95 5.49,-45.4l-38.32 0c-6.43,14.15 -10.87,29.4 -12.94,45.4l45.77 0zm16.44 -86.96c3.47,-10.04 7.41,-19.45 11.76,-28.11 -12.43,7.78 -23.78,17.26 -33.64,28.11l21.88 0z"/>
</g>
</svg>